<?xml version="1.0" standalone="no"?>
<!DOCTYPE svg PUBLIC "-//W3C//DTD SVG 20010904//EN"
 "http://www.w3.org/TR/2001/REC-SVG-20010904/DTD/svg10.dtd">
<svg version="1.0" xmlns="http://www.w3.org/2000/svg"
 width="800.000000pt" height="800.000000pt" viewBox="0 0 800.000000 800.000000"
 preserveAspectRatio="xMidYMid meet">
<metadata>
Created by potrace 1.14, written by Peter Selinger 2001-2017
</metadata>
<g transform="translate(0.000000,800.000000) scale(0.100000,-0.100000)"
fill="#000000" stroke="none">
<path d="M3897 7964 c-2 -3 -47 -7 -98 -9 -97 -4 -198 -12 -260 -21 -20 -2
-54 -6 -75 -9 -21 -2 -55 -6 -74 -10 -19 -3 -48 -8 -65 -11 -16 -2 -41 -7 -55
-9 -52 -11 -76 -15 -104 -21 -16 -2 -32 -7 -36 -9 -4 -2 -26 -7 -49 -10 -23
-3 -50 -9 -59 -14 -9 -4 -35 -12 -57 -16 -22 -4 -44 -10 -50 -13 -5 -4 -18 -8
-27 -9 -50 -8 -216 -68 -269 -98 -194 -110 -328 -297 -367 -515 -10 -55 -9
-223 2 -270 3 -14 8 -35 10 -47 3 -12 10 -31 16 -42 6 -12 9 -21 6 -21 -3 0 0
-15 5 -32 5 -18 23 -82 39 -143 32 -122 41 -154 100 -370 22 -82 43 -161 46
-175 3 -14 14 -56 25 -95 11 -38 23 -83 26 -100 10 -56 82 -235 95 -235 5 0 8
-6 8 -13 0 -25 109 -144 186 -205 55 -42 183 -102 253 -117 11 -3 31 -8 44
-11 42 -10 203 -12 257 -2 70 12 178 47 186 59 3 5 11 9 18 9 47 0 179 123
761 705 342 341 640 645 664 674 63 81 115 192 137 296 13 61 13 224 0 279 -8
31 -14 60 -15 64 -10 41 -18 63 -43 115 -59 122 -180 261 -266 306 -15 8 -29
17 -32 20 -5 6 -88 45 -100 47 -3 0 -30 8 -60 17 -82 25 -261 47 -407 51 -34
1 -65 5 -68 8 -3 3 -21 2 -39 -2 -19 -4 -39 -4 -45 -1 -6 4 -30 6 -53 4 -60
-5 -61 -5 -85 0 -11 3 -23 3 -26 1z"/>
<path d="M6369 6905 c-2 -1 -33 -6 -68 -9 -35 -4 -68 -9 -73 -12 -4 -3 -21 -8
-36 -10 -33 -6 -182 -74 -182 -84 0 -4 -12 -12 -26 -19 -37 -16 30 49 -1176
-1156 -963 -962 -1199 -1205 -1172 -1205 4 0 0 -8 -8 -17 -31 -37 -95 -224
-83 -244 3 -4 2 -10 -3 -13 -9 -5 -8 -173 2 -222 28 -146 96 -279 192 -379 90
-94 197 -160 314 -194 25 -7 62 -20 83 -27 20 -8 37 -12 37 -9 0 2 11 0 25 -5
14 -5 36 -12 48 -15 23 -5 130 -32 157 -40 26 -7 204 -55 220 -59 8 -2 35 -9
60 -16 25 -7 52 -14 60 -15 8 -2 62 -17 120 -33 99 -28 327 -89 360 -97 8 -2
40 -11 70 -19 188 -51 240 -64 240 -61 0 2 12 -2 27 -10 15 -8 30 -12 35 -9 5
3 14 1 21 -5 7 -5 28 -13 47 -16 19 -3 51 -10 70 -15 19 -5 40 -10 45 -11 6 0
16 -5 23 -11 6 -6 12 -8 12 -4 0 3 11 1 25 -4 14 -5 36 -12 48 -14 12 -2 58
-14 102 -26 44 -12 145 -39 225 -61 161 -42 232 -61 318 -85 31 -8 104 -28
162 -43 58 -16 159 -43 225 -61 214 -57 341 -59 498 -6 97 33 267 133 251 149
-3 3 3 8 13 12 45 15 165 196 197 295 15 49 42 166 52 225 3 21 8 47 10 59 2
11 7 41 10 66 3 25 7 59 10 75 6 31 9 62 20 175 16 159 8 698 -11 799 -1 9 -6
41 -10 71 -8 69 -14 108 -20 140 -7 40 -17 93 -21 115 -3 21 -31 147 -39 178
-5 16 -12 46 -20 77 -2 8 -4 17 -5 20 -1 3 -3 10 -5 15 -1 6 -3 13 -5 18 -1 4
-3 10 -4 15 -7 35 -85 266 -116 343 -11 27 -30 73 -41 102 -12 28 -40 90 -62
137 -22 47 -40 88 -39 92 1 3 -5 12 -13 18 -8 7 -15 19 -15 26 0 8 -11 31 -24
52 -13 20 -36 61 -52 91 -16 30 -33 61 -39 70 -5 9 -21 34 -34 56 -34 55 -133
207 -148 225 -7 8 -34 44 -60 80 -53 72 -56 75 -108 140 -140 171 -222 250
-323 307 -74 42 -177 78 -247 87 -82 10 -143 15 -146 11z m-265 -1699 c76 -14
207 -73 278 -126 47 -35 162 -155 179 -187 8 -16 16 -30 19 -33 12 -12 51
-100 69 -157 29 -93 39 -195 28 -293 -26 -222 -148 -418 -335 -538 -44 -28
-107 -60 -132 -67 -3 -1 -12 -4 -20 -8 -50 -20 -175 -40 -250 -40 -138 0 -287
48 -409 133 -58 40 -141 114 -141 126 0 3 -13 22 -30 40 -72 83 -140 280 -142
414 -5 244 111 476 307 615 56 39 160 93 195 100 8 2 16 4 18 4 1 1 3 1 5 0 1
0 15 5 31 11 16 6 64 14 105 17 42 3 77 7 79 8 2 2 105 -11 146 -19z"/>
<path d="M1078 6315 c-2 -2 -19 -5 -38 -8 -98 -15 -167 -41 -261 -98 -56 -34
-145 -111 -186 -162 -46 -57 -193 -329 -245 -452 -9 -22 -27 -62 -39 -90 -47
-109 -127 -339 -155 -445 -45 -168 -60 -227 -70 -280 -2 -14 -9 -49 -15 -78
-6 -29 -12 -66 -15 -82 -2 -17 -6 -42 -8 -57 -2 -16 -7 -53 -11 -83 -4 -30 -9
-66 -12 -80 -2 -14 -6 -88 -8 -165 -4 -152 10 -232 61 -344 31 -69 106 -174
157 -220 72 -65 82 -73 112 -88 17 -9 32 -19 35 -22 8 -12 92 -48 140 -61 25
-7 52 -15 60 -18 33 -11 49 -13 155 -14 117 -1 96 -6 494 102 63 16 124 32
135 35 22 5 99 25 279 75 183 51 316 136 422 271 20 26 23 31 68 111 27 49 64
158 73 218 14 83 9 210 -11 280 -4 14 -8 32 -9 40 -1 8 -6 25 -10 37 -4 12 -9
30 -11 40 -3 16 -149 560 -191 713 -8 30 -17 62 -19 70 -1 8 -10 42 -19 75 -9
33 -18 67 -20 75 -2 8 -10 35 -17 60 -7 25 -14 52 -15 60 -5 34 -44 141 -73
198 -40 80 -156 222 -181 222 -4 0 -10 4 -12 8 -4 12 -86 65 -130 86 -108 49
-188 68 -310 71 -54 1 -99 1 -100 0z"/>
<path d="M1930 3062 c-14 -2 -61 -13 -105 -24 -44 -11 -90 -22 -103 -24 -13
-3 -42 -11 -65 -19 -37 -12 -147 -42 -187 -50 -95 -20 -440 -122 -487 -145
-215 -100 -355 -279 -409 -525 -5 -23 -16 -135 -15 -150 0 -5 3 -36 5 -69 3
-32 13 -81 22 -108 9 -27 17 -54 18 -61 4 -25 68 -140 106 -192 22 -30 40 -58
40 -64 0 -5 4 -11 8 -13 5 -1 28 -30 53 -63 24 -33 49 -65 54 -71 6 -6 26 -30
45 -54 146 -183 447 -481 574 -570 12 -8 26 -19 32 -25 6 -5 26 -21 44 -35 18
-14 38 -30 44 -35 6 -6 47 -34 91 -64 44 -30 90 -63 103 -74 12 -11 22 -18 22
-15 0 3 30 -14 68 -39 90 -60 213 -118 292 -139 62 -16 247 -24 295 -12 11 3
34 8 50 12 80 20 144 48 226 101 211 136 339 372 333 615 -2 99 -6 122 -42
258 -11 39 -17 72 -15 72 3 0 1 6 -4 13 -6 6 -13 26 -16 42 -4 17 -16 64 -27
105 -12 41 -23 83 -25 94 -3 10 -12 44 -21 75 -9 31 -18 67 -21 80 -2 14 -6
28 -9 33 -3 4 -7 17 -10 28 -8 39 -65 253 -93 355 -11 38 -17 73 -15 77 3 4 1
8 -4 8 -5 0 -12 12 -15 28 -3 15 -8 38 -12 52 -3 14 -8 34 -10 45 -16 74 -69
185 -125 260 -39 52 -142 155 -156 155 -4 0 -15 6 -23 14 -27 23 -104 62 -166
84 -103 36 -238 50 -345 34z"/>
<path d="M4348 2535 c-2 -2 -25 -5 -53 -8 -64 -7 -103 -15 -127 -28 -10 -5
-18 -7 -18 -3 0 3 -7 1 -15 -6 -8 -7 -15 -9 -15 -6 0 8 -119 -56 -165 -88 -62
-44 -195 -188 -195 -212 0 -4 -6 -15 -14 -23 -13 -16 -64 -136 -72 -172 -2
-11 -7 -29 -10 -41 -10 -38 -13 -236 -3 -271 32 -119 61 -236 66 -257 2 -14 7
-32 10 -40 3 -8 7 -19 8 -25 2 -5 8 -30 15 -55 7 -25 14 -52 16 -60 1 -8 17
-67 34 -130 17 -63 32 -119 33 -125 2 -5 6 -16 10 -22 5 -7 6 -13 3 -13 -3 0
-1 -11 4 -25 5 -14 12 -36 14 -48 2 -12 14 -57 25 -99 12 -43 30 -112 42 -155
44 -165 114 -290 216 -383 152 -138 298 -195 528 -202 38 -1 198 31 315 62 41
12 85 23 97 25 12 3 53 16 92 29 39 13 71 22 71 19 0 -3 6 -1 13 4 6 6 26 14
42 18 17 5 32 9 35 10 3 1 22 9 44 18 21 9 40 17 43 17 26 0 403 178 518 245
33 19 78 44 99 56 21 11 44 25 50 30 6 5 40 28 76 50 36 23 67 45 68 50 2 5 8
9 14 9 16 0 179 125 237 182 83 82 138 172 175 284 26 78 28 92 31 204 7 178
-44 340 -148 474 -47 61 -139 146 -157 146 -5 0 -10 4 -10 8 0 10 -91 58 -102
54 -5 -1 -8 2 -8 7 0 8 -11 12 -62 26 -5 2 -9 3 -10 5 -2 1 -10 3 -18 5 -8 2
-42 11 -75 21 -33 9 -67 18 -75 20 -8 2 -82 22 -165 44 -82 22 -197 53 -255
67 -58 15 -107 30 -110 33 -3 3 -14 6 -25 7 -24 3 -60 11 -60 13 0 1 -7 3 -15
5 -8 2 -42 11 -75 20 -33 9 -67 18 -75 20 -8 1 -33 8 -55 14 -22 6 -43 11 -47
11 -4 0 -25 7 -47 15 -22 7 -56 16 -76 19 -21 4 -41 9 -46 12 -5 3 -17 7 -26
9 -18 4 -68 17 -213 56 -191 52 -267 69 -331 72 -38 2 -70 3 -71 2z"/>
</g>
</svg>
