<svg xmlns="http://www.w3.org/2000/svg" viewBox="0 0 41.823 10.149"><text xml:space="preserve" x="25.242" y="7.4" stroke-width=".182" font-family="IBM Plex Mono" font-size="7.274" font-style="italic" font-weight="400" letter-spacing="-.23" style="line-height:1.25;-inkscape-font-specification:'IBM Plex Mono Italic';text-align:end" text-anchor="end"><tspan x="25.012" y="7.4" style="-inkscape-font-specification:'IBM Plex Mono Italic';text-align:end">Ape</tspan></text><text xml:space="preserve" x="25.012" y="7.4" stroke-width=".182" font-family="IBM Plex Mono" font-size="7.274" font-style="italic" font-weight="600" letter-spacing="-.23" style="line-height:1.25;-inkscape-font-specification:'IBM Plex Mono Semi-Bold Italic'"><tspan x="25.012" y="7.4" style="-inkscape-font-specification:'IBM Plex Mono Semi-Bold Italic'">Kind</tspan></text><path d="M0 0v10.15h10.024V0H0zm5.035.862c.174.001.347.013.52.035a.779.779 0 0 1 .45 1.324l-1.24 1.24a.779.779 0 0 1-1.304-.349l-.293-1.095a.78.78 0 0 1 .508-.941 4.248 4.248 0 0 1 1.36-.214zm2.527 1.124c.21 0 .422.084.577.252a4.25 4.25 0 0 1 1.017 3.795.78.78 0 0 1-.963.584l-3.099-.83a.779.779 0 0 1-.35-1.304l2.27-2.27a.775.775 0 0 1 .548-.227zm-5.584.623a.773.773 0 0 1 .77.578l.34 1.265a.779.779 0 0 1-.552.954l-.788.212A.78.78 0 0 1 .77 4.81a4.25 4.25 0 0 1 .55-1.809.762.762 0 0 1 .659-.392zm5.1 1.166a.78.78 0 1 0 .208 1.532.779.779 0 0 0-.208-1.532zM2.914 6.064a.78.78 0 0 1 .76.577l.339 1.266a.779.779 0 0 1-1.145.874 4.248 4.248 0 0 1-1.38-1.29.78.78 0 0 1 .443-1.19l.789-.21a.78.78 0 0 1 .194-.027zm2.494.57c.07-.002.141.007.214.027l1.695.454a.78.78 0 0 1 .271 1.371 4.246 4.246 0 0 1-1.716.785.78.78 0 0 1-.911-.561l-.294-1.095a.78.78 0 0 1 .74-.982z"/></svg>