<svg xmlns="http://www.w3.org/2000/svg" viewBox="0 0 41.82 10.15" xmlns:v="https://vecta.io/nano"><path fill-opacity=".99" d="M26.97 5.35l-.73.78-.26 1.54H25l.9-5.38h.98l-.41 2.45h.05l.92-1.07 1.22-1.38h1.18l-2.1 2.36L29 7.67h-1.09zm5.33 2.32l.66-3.98h.97l-.16.94h.04q.22-.47.52-.74.3-.29.79-.29.27 0 .47.1.21.08.34.23.13.16.2.37.06.21.06.45 0 .29-.07.74l-.37 2.18h-.97l.38-2.27.03-.23.02-.25q0-.22-.11-.39-.12-.17-.4-.17-.23 0-.39.11-.16.1-.3.28-.1.1-.22.33-.13.22-.18.5l-.35 2.09zm7.02-.94h-.03q-.12.23-.25.42-.12.19-.28.33-.16.13-.37.2-.2.08-.46.08-.61 0-.9-.4-.28-.42-.28-1.14 0-.53.11-1 .13-.49.36-.84.24-.36.58-.57.35-.2.8-.2.46 0 .71.2.26.22.36.6h.03l.41-2.44h.97l-.94 5.7h-.97zm-.97.26q.22 0 .4-.1.18-.1.34-.3.11-.12.22-.31.12-.2.16-.47l.13-.74q.06-.33-.13-.51-.18-.19-.57-.19-.47 0-.72.28-.26.28-.33.75l-.09.5-.02.17v.17q0 .34.13.54.15.21.48.21zM31.52 1.9a.81.81 0 0 0-.48.12.54.54 0 0 0-.18.35l-.02.17-.01.1c0 .12.04.22.12.3.09.08.24.12.46.12.21 0 .37-.04.47-.12a.6.6 0 0 0 .19-.35l.02-.17v-.1a.4.4 0 0 0-.12-.3c-.08-.09-.23-.13-.45-.13zM29.9 3.7l-.14.77h.86l-.4 2.43-.13.77h.98l.13-.77.53-3.2z" letter-spacing="-1.84"/><path fill-opacity=".99" d="m14.97 7.68-.2-1.53h-1.9l-.7 1.53h-.68l2.54-5.37h.85l.75 5.37zm-.59-4.73h-.07l-1.2 2.64h1.6zm2.63.75h.6l-.15.95h.02q.23-.47.56-.75.33-.28.85-.28.6 0 .92.38.32.39.32 1.16 0 .4-.1.86-.1.45-.32.85-.21.39-.57.65-.37.26-.89.26-.44 0-.74-.2T17.1 7h-.03l-.37 2.23h-.6zm1.06 3.54q.58 0 .9-.34.34-.35.43-.9l.1-.56.01-.18.01-.16q0-.45-.21-.7-.21-.25-.63-.25-.24 0-.48.1t-.45.34q-.15.17-.28.4-.11.23-.16.5l-.15.88q-.06.42.2.65.27.22.71.22zm4.38.54q-.75 0-1.16-.42-.4-.42-.4-1.29 0-.54.15-.98.16-.46.45-.78.3-.33.7-.5.4-.2.88-.2.3 0 .54.08.24.06.42.2.19.13.29.33.1.2.1.47 0 .2-.1.43-.1.22-.4.41-.3.2-.88.33-.57.13-1.52.15v.18q0 .2.03.4.04.2.15.35.1.14.3.24.19.08.5.08.22 0 .4-.05.17-.05.32-.15.16-.1.31-.27t.32-.4l.43.25q-.34.56-.77.85-.43.29-1.06.29zm.56-3.66q-.6 0-.97.36-.38.36-.47 1.04v.08q.72-.03 1.16-.11.45-.1.68-.22.24-.12.31-.27.08-.14.08-.29 0-.12-.05-.23-.03-.1-.13-.19-.09-.08-.24-.13-.15-.04-.37-.04z" letter-spacing="-.24"/><path d="M0 0v10.15h10.02V0H0zm5.04.86c.17 0 .34.02.52.04A.78.78 0 0 1 6 2.22L4.76 3.46a.78.78 0 0 1-1.3-.35l-.3-1.1a.78.78 0 0 1 .5-.93A4.25 4.25 0 0 1 5.05.86zM7.55 2c.21 0 .42.08.58.25a4.25 4.25 0 0 1 1.02 3.8.78.78 0 0 1-.97.58l-3.1-.83a.78.78 0 0 1-.35-1.3l2.28-2.3a.78.78 0 0 1 .55-.2zm-5.58.62a.77.77 0 0 1 .77.58l.34 1.26a.78.78 0 0 1-.55.96l-.8.2a.78.78 0 0 1-.97-.8 4.25 4.25 0 0 1 .55-1.8.76.76 0 0 1 .66-.4zm5.1 1.17a.78.78 0 1 0 .2 1.53.78.78 0 0 0-.2-1.53zM2.9 6.05a.78.78 0 0 1 .76.58L4 7.9a.78.78 0 0 1-1.14.87A4.25 4.25 0 0 1 1.49 7.5a.78.78 0 0 1 .44-1.19l.79-.2a.78.78 0 0 1 .2-.04zm2.5.57.21.03 1.7.46a.78.78 0 0 1 .27 1.37 4.25 4.25 0 0 1-1.72.78.78.78 0 0 1-.9-.56l-.3-1.1a.78.78 0 0 1 .74-.98z"/></svg>